<?xml version="1.0" standalone="no"?>
<!DOCTYPE svg PUBLIC "-//W3C//DTD SVG 1.1//EN" "http://www.w3.org/Graphics/SVG/1.1/DTD/svg11.dtd" >
<svg>
<metadata>
Created by FontForge 20110222 at Mon Mar  7 04:45:58 2011
 By www-data
Adorable is a product of MicroLogic Software, Inc.
</metadata>
<defs>
<font id="Adorable-" horiz-adv-x="303" >
  <font-face 
    font-family="Adorable"
    font-weight="400"
    font-stretch="normal"
    units-per-em="2048"
    panose-1="3 0 6 0 0 0 0 2 0 0"
    ascent="1638"
    descent="-410"
    x-height="888"
    cap-height="1277"
    bbox="-515 -510 2241 1625"
    underline-thickness="150"
    underline-position="-129"
    unicode-range="U+0020-2122"
  />
    <missing-glyph />
    <glyph glyph-name="space" unicode=" " horiz-adv-x="569" 
 />
    <glyph glyph-name="space" unicode="&#xa0;" horiz-adv-x="569" 
 />
    <glyph glyph-name="logicalnot" unicode="&#xac;" horiz-adv-x="1700" 
d="M254 849h1192v-496h-135v361h-1057v135z" />
    <glyph glyph-name="logicalnot" horiz-adv-x="1700" 
d="M254 849h1192v-496h-135v361h-1057v135z" />
    <glyph glyph-name="divide" unicode="&#xf7;" horiz-adv-x="1700" 
d="M254 669h1188v-135h-1188v135zM725 968q2 50 37 85.5t86 37.5q50 -2 85.5 -37.5t37.5 -85.5q-2 -51 -37.5 -86t-85.5 -37q-51 2 -86 37t-37 86zM725 235q2 50 37 85t86 37q50 -2 85.5 -37t37.5 -85q-2 -51 -37.5 -86t-85.5 -37q-51 2 -86 37t-37 86z" />
    <glyph glyph-name="exclam" unicode="!" horiz-adv-x="721" 
d="M637 1308q-6 -60 -38 -168.5t-77 -235.5t-88 -244.5t-72 -195.5l-30 -88l-78 -45q85 253 161 526.5t81 405.5zM203 151q44 -2 67 -31.5t23 -59.5q-1 -39 -27.5 -63t-64.5 -26q-38 2 -63.5 26.5t-26.5 62.5q0 33 23.5 61t68.5 30z" />
    <glyph glyph-name="quotedbl" unicode="&#x22;" horiz-adv-x="872" 
d="M537 1277l-45 -379h-50l-47 379h142zM772 1277l-47 -379h-49l-45 379h141z" />
    <glyph glyph-name="numbersign" unicode="#" horiz-adv-x="1100" 
d="M893 1099l-123 -385h209l-57 -80h-179l-61 -201h207l-58 -80h-176l-110 -353l-88 -18l118 371h-251l-111 -353l-88 -18l119 371h-209l59 80h176l64 201h-211l59 80h178l111 358l90 27l-121 -385h250l113 358zM602 433l62 201h-250l-62 -201h250z" />
    <glyph glyph-name="dollar" unicode="$" horiz-adv-x="1100" 
d="M717 1115l-123 -385q75 -89 122.5 -173.5t49.5 -164.5q-2 -111 -82 -193.5t-215 -86.5q-11 0 -30 1t-40 3l-43 -132l-63 -13l51 157q-78 30 -117.5 62t-79.5 94l60 110q30 -97 60 -138.5t89 -78.5l148 463q-57 74 -89 133.5t-32 132.5q1 54 21 98t53 76q53 52 106.5 67
t106.5 13l30 99l66 18l-37 -121q58 -12 102 -32t95 -70l-64 -109q-13 75 -47.5 110.5t-97.5 59.5zM549 787l108 334h-30q-54 -2 -102.5 -48.5t-51.5 -115.5q1 -37 21.5 -81t54.5 -89zM547 579l-133 -422q19 -8 36 -12.5t39 -4.5q79 2 127.5 53.5t49.5 129.5
q-1 61 -34.5 124.5t-84.5 131.5z" />
    <glyph glyph-name="percent" unicode="%" horiz-adv-x="1554" 
d="M498 1246q92 -2 143 -57t68 -139q18 -7 38 -11t41 -4q140 3 278.5 74t256.5 168l33 -29q-184 -181 -301.5 -322.5t-304.5 -406.5q-90 -137 -161.5 -267t-115.5 -249l-156 -32q86 175 215 359t234 314q143 173 278.5 322.5t215.5 228.5l-7 4q-49 -29 -108.5 -64.5
t-125 -69.5t-131 -55.5t-124.5 -23.5q-17 0 -30 2t-21 2q-1 -144 -97.5 -305.5t-271.5 -175.5q-103 3 -159.5 78.5t-57.5 187.5q5 176 112.5 319t258.5 152zM207 751q1 -99 39 -155.5t106 -57.5q107 9 188 152.5t85 312.5q0 96 -36 154.5t-102 60.5q-106 -9 -190.5 -151.5
t-89.5 -315.5zM1212 726q101 -2 156.5 -69.5t56.5 -170.5q-4 -179 -111.5 -328t-269.5 -158q-97 3 -150 71t-54 172q5 180 111.5 327t260.5 156zM1065 28q121 11 199.5 161t81.5 310q0 90 -37.5 143.5t-108.5 54.5q-120 -10 -198.5 -156.5t-81.5 -312.5q2 -105 43.5 -153
t101.5 -47z" />
    <glyph glyph-name="ampersand" unicode="&#x26;" horiz-adv-x="1706" 
d="M856 1277q90 -2 148.5 -53t60.5 -127q0 -90 -85.5 -162t-254.5 -123q11 -45 36.5 -116.5t41.5 -118.5h4q37 40 76 73t90 57.5t128 37t191 12.5q41 0 80.5 -3t69.5 -3q74 -1 108.5 11.5t77.5 47.5q-10 -15 -28.5 -41t-34.5 -43q-36 -40 -93.5 -53t-214.5 -12
q3 -109 -37.5 -251.5t-160.5 -269.5q104 -144 258.5 -275.5t384.5 -194.5l-180 -53q-177 59 -315.5 181.5t-250.5 266.5q-32 -31 -84.5 -51t-130.5 -22q-181 6 -286 104.5t-107 238.5q2 70 31.5 129.5t62.5 91.5l52 18q-41 -38 -73 -95.5t-34 -137.5q4 -140 102 -230.5
t242 -93.5q61 0 115.5 19.5t93.5 52.5q-117 153 -203 331t-129 343q-156 -80 -248 -191t-94 -256q0 -114 61 -195.5t183 -128.5q-84 -4 -227 59.5t-158 262.5q8 180 152 299t323 179q-8 37 -17 86t-10 106q2 138 80 215t203 78zM721 845q113 46 178 117t66 163
q0 52 -30.5 82t-84.5 31q-60 -1 -111.5 -56.5t-54.5 -154.5q0 -47 10 -95.5t27 -86.5zM1176 665q-116 3 -199 -17t-162 -98q42 -98 96.5 -192.5t126.5 -188.5q76 77 117 171.5t41 188.5q0 39 -6 70t-14 66z" />
    <glyph glyph-name="quoteright" unicode="&#x2019;" horiz-adv-x="569" 
d="M477 1308q45 -2 65.5 -30.5t20.5 -66.5q-7 -123 -103.5 -206.5t-191.5 -104.5l-6 29q86 23 133.5 73t48.5 99q-4 33 -29.5 55.5t-29.5 65.5q1 35 25.5 60t66.5 26z" />
    <glyph glyph-name="parenleft" unicode="(" horiz-adv-x="645" 
d="M784 1492l23 -31q-275 -221 -430 -606.5t-158 -802.5q0 -92 11.5 -172t31.5 -146l-37 -13q-36 106 -62.5 241.5t-27.5 321.5q-1 371 158 680.5t491 527.5z" />
    <glyph glyph-name="parenright" unicode=")" horiz-adv-x="645" 
d="M-155 -279l-22 31q272 221 427 605t158 801q0 95 -11.5 176t-31.5 146l36 12q37 -104 63.5 -241.5t27.5 -323.5q1 -372 -157.5 -680.5t-489.5 -525.5z" />
    <glyph glyph-name="asterisk" unicode="*" horiz-adv-x="1100" 
d="M694 1281l101 27q-29 -60 -61 -140t-66 -176l6 -6q63 43 103.5 71t74.5 62l61 -26q-57 -29 -128.5 -68t-129.5 -74q24 -25 54.5 -61.5t64.5 -71.5q20 -19 31 -29.5t18 -17.5l-20 -63l-158 219q-26 -92 -40.5 -162t-24.5 -139l-103 -37l133 334l-6 2q-43 -26 -94 -62.5
t-84 -68.5l-51 32q50 28 125 68.5t121 67.5q-41 45 -69 77.5t-38 42.5q-9 10 -25.5 24t-37.5 36l24 71q32 -50 74.5 -113t79.5 -112q17 61 35 141.5t30 151.5z" />
    <glyph glyph-name="plus" unicode="+" horiz-adv-x="1100" 
d="M485 468v420h101v-420h358v-80h-358v-417h-101v417h-358v80h358z" />
    <glyph glyph-name="comma" unicode="," horiz-adv-x="569" 
d="M143 77q1 35 25.5 60t67.5 26q44 -2 65 -30.5t21 -65.5q-7 -119 -103 -203t-192 -106l-7 29q86 25 134 75t49 97q-4 32 -30 53.5t-30 64.5z" />
    <glyph glyph-name="hyphen" unicode="-" horiz-adv-x="682" 
d="M31 413l75 114q214 -1 291.5 3.5t153.5 21.5l-78 -115q-206 0 -284.5 -4.5t-157.5 -19.5z" />
    <glyph glyph-name="hyphen" unicode="&#xad;" horiz-adv-x="682" 
d="M31 413l75 114q214 -1 291.5 3.5t153.5 21.5l-78 -115q-206 0 -284.5 -4.5t-157.5 -19.5z" />
    <glyph glyph-name="period" unicode="." horiz-adv-x="569" 
d="M283 69q0 -37 -25 -66t-70 -32q-52 2 -77 27t-25 64q1 44 27.5 72t68.5 29q48 -1 74.5 -27t26.5 -67z" />
    <glyph glyph-name="slash" unicode="/" horiz-adv-x="797" 
d="M-220 -246l267 409q64 108 155 253.5t189 304.5t188.5 304t153.5 252l156 31q-80 -105 -160 -221.5t-158.5 -243.5t-158.5 -259t-164 -268q-69 -106 -164.5 -258t-162.5 -273z" />
    <glyph glyph-name="zero" unicode="0" horiz-adv-x="1100" 
d="M690 1277q185 -10 259 -154.5t71 -296.5q-10 -328 -192.5 -584t-421.5 -271q-152 5 -239 126t-89 318q11 353 197 602t415 260zM199 325q0 -161 50.5 -243t151.5 -82q229 27 362 335.5t136 570.5q2 151 -46 245t-165 97q-224 -29 -355 -346t-134 -577z" />
    <glyph glyph-name="one" unicode="1" horiz-adv-x="1100" 
d="M504 0l-164 -29q45 122 98.5 283t107.5 333t103 327.5t88 268.5l-6 6q-62 -61 -99 -97t-48 -46q-13 -12 -91 -99.5t-167 -212.5l-35 129l454 383l160 31q-35 -82 -74.5 -193.5t-79.5 -237.5t-79 -251t-72 -236q-24 -71 -51 -172t-45 -187z" />
    <glyph glyph-name="two" unicode="2" horiz-adv-x="1100" 
d="M639 1277q160 -3 243.5 -84t84.5 -207q0 -65 -31 -128.5t-100 -131.5q-58 -53 -144 -121.5t-187.5 -149.5t-203.5 -168t-192 -177h358q105 1 217 10.5t150 17.5l-70 -144q-22 3 -97.5 4.5t-252.5 1.5q-206 0 -298.5 -1.5t-115.5 -4.5l33 105q57 60 142 142t177 169
t169 158.5t116 108.5q98 97 143.5 173t44.5 148q-1 89 -65.5 148t-181.5 61q-76 -1 -137.5 -19.5t-106.5 -41.5l-17 57q55 28 137.5 50.5t184.5 23.5z" />
    <glyph glyph-name="three" unicode="3" horiz-adv-x="1100" 
d="M385 1234q52 22 100.5 32.5t116.5 10.5q158 -2 237 -67.5t79 -172.5q-9 -148 -132.5 -223.5t-253.5 -91.5v-6q113 -43 200.5 -129t92.5 -223q-4 -159 -139 -273t-354 -120q-70 2 -135.5 15t-118.5 31l31 56q43 -18 93 -31t117 -14q166 3 274 92.5t112 230.5
q-8 153 -136.5 236t-283.5 84l49 84q13 -2 37 -5t65 -3q177 3 269 83t92 201q0 85 -56 135.5t-166 51.5q-44 0 -85.5 -11t-90.5 -28z" />
    <glyph glyph-name="four" unicode="4" horiz-adv-x="1100" 
d="M989 1277l-252 -750q139 0 203 5t92 8l-61 -113q-15 3 -70.5 6.5t-191.5 3.5l-121 -437l-150 -29l150 466h-226q-21 1 -96 -3t-172 -19l-24 30q179 178 312.5 371t188.5 393l138 68q-88 -178 -203.5 -354t-312.5 -396h423l224 719z" />
    <glyph glyph-name="five" unicode="5" horiz-adv-x="1100" 
d="M508 1254q18 -2 69 -5t183 -3q126 0 185.5 3t88.5 5l-71 -118h-447l-143 -277q180 -46 307 -153.5t133 -296.5q-3 -174 -136.5 -302.5t-354.5 -135.5q-88 2 -162 20t-131 45l16 47q49 -24 116.5 -44.5t143.5 -21.5q176 7 280.5 122.5t106.5 258.5q-4 162 -121.5 250.5
t-304.5 108.5q60 104 124 233t118 264z" />
    <glyph glyph-name="six" unicode="6" horiz-adv-x="1100" 
d="M1090 1234l-23 -55q-42 17 -83 28t-91 11q-321 -33 -451 -296.5t-125 -359.5l5 -6q52 89 127 139.5t182 51.5q152 -5 220 -97.5t67 -212.5q-4 -182 -121.5 -320t-304.5 -146q-173 5 -256.5 120.5t-83.5 294.5q6 310 212 591t535 300q62 0 105.5 -11.5t85.5 -31.5z
M797 431q1 103 -49 182.5t-158 83.5q-127 -2 -215 -111t-92 -306q0 -132 56 -205.5t161 -74.5q128 5 211 128.5t86 302.5z" />
    <glyph glyph-name="seven" unicode="7" horiz-adv-x="1100" 
d="M414 1254q8 -2 83 -5t277 -3q169 0 226.5 3.5t97.5 13.5l20 -17q-181 -174 -482.5 -558.5t-352.5 -687.5l-183 -29q57 215 297.5 522t573.5 653h-223q-109 0 -222 -15.5t-202 -39.5z" />
    <glyph glyph-name="eight" unicode="8" horiz-adv-x="1100" 
d="M727 1277q137 -2 205.5 -63t68.5 -154q-3 -118 -96.5 -205.5t-242.5 -146.5l-3 -4q92 -66 159.5 -150t70.5 -199q-4 -154 -125 -266t-315 -118q-170 4 -261 82t-92 202q6 162 128.5 271t285.5 157q-69 53 -107 121.5t-38 144.5q2 132 99 227.5t263 100.5zM627 726
q133 61 203 143.5t71 186.5q0 82 -44.5 136t-137.5 56q-106 -4 -174 -81.5t-70 -186.5q1 -81 42 -141t110 -113zM541 654q-134 -50 -222.5 -149.5t-91.5 -251.5q0 -113 60.5 -182t183.5 -71q130 4 207.5 92.5t79.5 215.5q-5 133 -74 215t-143 131z" />
    <glyph glyph-name="nine" unicode="9" horiz-adv-x="1100" 
d="M8 9l27 45q37 -27 82 -37.5t92 -9.5q299 30 434.5 288.5t153.5 383.5l-4 4q-56 -74 -134 -127.5t-192 -56.5q-144 5 -213 96t-68 213q3 178 120 319.5t315 149.5q162 -3 250.5 -117.5t89.5 -302.5q-8 -322 -223.5 -595t-536.5 -291q-57 1 -104.5 12t-88.5 26zM307 810
q0 -113 53.5 -186t157.5 -76q115 1 205.5 106t95.5 297q0 137 -53.5 216t-165.5 81q-135 -7 -213 -137.5t-80 -300.5z" />
    <glyph glyph-name="colon" unicode=":" horiz-adv-x="569" 
d="M283 69q0 -36 -24 -65.5t-71 -32.5q-52 2 -77 27t-25 64q1 44 27.5 72t68.5 29q48 -1 74.5 -27t26.5 -67zM508 794q0 -36 -24 -67.5t-70 -33.5q-52 1 -77.5 28t-25.5 66q1 44 27.5 72t69.5 29q48 -1 74 -27t26 -67z" />
    <glyph glyph-name="semicolon" unicode=";" horiz-adv-x="569" 
d="M195 163q43 -1 64.5 -29.5t21.5 -68.5q-11 -131 -117 -213.5t-175 -93.5l-6 29q84 27 131 76.5t48 93.5q-4 35 -30 55t-30 65q1 38 26.5 61.5t66.5 24.5zM322 787q1 44 27 72t69 29q48 -1 74 -27t26 -67q0 -37 -24.5 -68t-69.5 -33q-52 1 -77 28t-25 66z" />
    <glyph glyph-name="less" unicode="&#x3c;" horiz-adv-x="1100" 
d="M924 892v-100l-717 -367v-2l717 -354v-98l-818 413v82z" />
    <glyph glyph-name="equal" unicode="=" horiz-adv-x="1100" 
d="M127 570h817v-79h-817v79zM127 366h817v-80h-817v80z" />
    <glyph glyph-name="greater" unicode="&#x3e;" horiz-adv-x="1100" 
d="M176 892l817 -428v-78l-817 -415v100l715 350v4l-715 367v100z" />
    <glyph glyph-name="question" unicode="?" horiz-adv-x="872" 
d="M324 58q-1 -35 -26 -60t-65 -27q-41 2 -66 26.5t-26 60.5q1 37 26 64.5t66 28.5q42 -2 66.5 -30t24.5 -63zM268 271q-5 13 -8.5 36t-3.5 50q2 144 71.5 238t162 164.5t163 147.5t74.5 184q-1 77 -47 126.5t-131 51.5q-46 -1 -90.5 -17t-81.5 -39l-17 37q48 25 98.5 41
t121.5 17q134 -2 201 -66t67 -166q-4 -106 -81 -178t-177.5 -130t-176 -131t-77.5 -185q1 -49 14 -85t29 -65z" />
    <glyph glyph-name="at" unicode="@" horiz-adv-x="2048" 
d="M1112 1254q315 -5 522 -184.5t215 -478.5q-10 -288 -184 -466t-385 -184q-90 3 -123 45t-31 97q-57 -65 -123.5 -97t-144.5 -33q-122 2 -194 77t-74 213q8 229 162.5 440.5t365.5 226.5q94 -1 150 -41.5t88 -107.5h4q4 15 19 49.5t24 58.5h174q-74 -182 -129 -317
t-92 -228.5t-55.5 -148.5t-18.5 -78q0 -28 16 -41.5t48 -13.5q129 3 263.5 148.5t145.5 398.5q-7 262 -187 411t-448 152q-314 -13 -546 -252.5t-244 -552.5q2 -250 186 -416t531 -173q165 0 315.5 51t282.5 158l51 -47q-84 -84 -260 -164.5t-402 -87.5q-376 6 -605.5 191
t-235.5 484q10 367 270 632.5t649 278.5zM1290 701q0 49 -32 89.5t-95 42.5q-156 -23 -281 -258.5t-132 -403.5q0 -68 37 -103.5t106 -35.5q45 0 80.5 16.5t64.5 46.5q95 105 171.5 300t80.5 306z" />
    <glyph glyph-name="A" unicode="A" horiz-adv-x="1630" 
d="M1350 560q0 -127 20 -216t57 -148l-51 -52q-32 77 -48.5 160t-16.5 199q4 213 57 421t111 361l-70 -12q-66 -192 -117.5 -425.5t-54.5 -447.5q-2 -234 45 -305.5t162 -64.5l-10 -30l-279 -6q-23 72 -31 167.5t-8 181.5q0 59 3 109t5 67h-346q-47 -86 -102 -181t-123 -178
t-156 -135t-200 -54q-143 5 -213 74.5t-71 156.5q21 229 251 296t436 60h145q142 228 260.5 382t229.5 263q24 24 39.5 38.5t30.5 29.5l223 51q-68 -151 -121.5 -361t-56.5 -401zM801 558h325q22 177 62.5 339t93.5 310l-6 2q-94 -105 -215 -261.5t-260 -389.5zM719 519
h-119q-256 2 -420 -64.5t-170 -222.5q2 -102 69 -158t171 -57q82 2 146.5 42t116.5 110t102.5 160t103.5 190z" />
    <glyph glyph-name="B" unicode="B" horiz-adv-x="1593" 
d="M367 1177q121 55 281.5 78t266.5 22q-47 -111 -99 -246t-104.5 -289.5t-93 -321.5t-61.5 -347q30 -24 58.5 -40.5t70.5 -32.5l-291 -18q33 215 146 573t247 669q-7 0 -22.5 2t-44.5 2q-221 -2 -360.5 -85t-143.5 -226q0 -17 5.5 -38.5t15.5 -54.5l-121 -39
q4 113 59.5 217.5t190.5 174.5zM1010 1168q68 68 144.5 104t150.5 36q103 -3 155.5 -64.5t52.5 -146.5q-1 -145 -132.5 -247t-381.5 -155v-2q147 -26 273.5 -109.5t134.5 -248.5q-4 -145 -125.5 -251.5t-318.5 -112.5q-151 1 -220.5 75.5t-68.5 220.5q-1 155 81.5 433.5
t254.5 467.5zM893 716q216 6 350.5 119.5t138.5 261.5q0 63 -35 106t-108 45q-152 -11 -269 -176.5t-171 -349.5q17 0 43 -3t51 -3zM840 687q-13 0 -27.5 -1t-24.5 -3q-23 -75 -48 -194t-27 -224q0 -129 62.5 -197t189.5 -68q141 3 220.5 93t80.5 230q-15 218 -165.5 293.5
t-260.5 70.5z" />
    <glyph glyph-name="C" unicode="C" horiz-adv-x="1176" 
d="M901 1308q113 -1 209 -29.5t184 -71.5l-80 -192q-32 97 -102.5 168.5t-189.5 75.5q-200 -13 -344.5 -227t-151.5 -470q0 -128 52 -221t159 -98q29 0 47 7.5t33 16.5l-86 -94q-85 -2 -162 77t-82 277q7 270 136 474.5t296 263.5q-1 3 -3 5.5t-9 2.5q-51 1 -122 -32.5
t-150 -111.5q-113 -111 -198.5 -300.5t-90.5 -407.5q1 -174 103 -282t298 -111q115 1 220 34.5t192 83.5l-29 -69q-43 -15 -92 -33t-105.5 -34t-123 -26.5t-142.5 -12.5q-244 3 -359 115.5t-114 315.5q6 309 225.5 597t581.5 309z" />
    <glyph glyph-name="D" unicode="D" horiz-adv-x="1821" 
d="M981 1277q425 -4 595 -143t163 -371q-11 -313 -238.5 -546t-535.5 -246q-164 4 -231.5 85.5t-65.5 206.5q5 209 82.5 431t160.5 388l90 21q-125 -143 -208 -415t-86 -429q-2 -111 60.5 -180.5t207.5 -71.5q280 13 444 236t168 504q-4 258 -194.5 375.5t-526.5 115.5
q-359 -4 -506.5 -98t-142.5 -236q1 -29 7 -48t12 -34l-119 -39q-8 217 184 353.5t680 140.5zM393 -18q6 70 17.5 131.5t29 126t39 138.5t49.5 168q46 144 110.5 332t117.5 315h110q-127 -340 -208.5 -601t-118.5 -527q20 -17 42 -31t58 -34z" />
    <glyph glyph-name="E" unicode="E" horiz-adv-x="1403" 
d="M664 146q8 246 105 554.5t192 517.5q-60 10 -107 15t-86 5q-235 0 -385.5 -81.5t-155.5 -242.5q1 -27 8.5 -48t12.5 -38l-121 -41q21 273 237 383.5t588 106.5q95 -1 218 -6t227 -6q85 0 148.5 8t111.5 26l-119 -135q-180 1 -302.5 16.5t-242.5 30.5q-41 -72 -91.5 -206
t-96.5 -279h393l-70 -70q-50 18 -108 24.5t-92 6.5h-135q-26 -81 -47.5 -201t-22.5 -231q0 -36 4 -68.5t6 -56.5q69 -26 139 -37.5t172 -11.5q84 0 134.5 9t105.5 28l-115 -118q-29 -2 -58 -4.5t-67 -3.5q-114 1 -209.5 18t-166.5 48q-2 16 -3 35t-1 53zM883 1193
q-52 -139 -103 -276.5t-95 -276.5t-78 -281.5t-52 -293.5q20 -18 51.5 -37t52.5 -28l-264 -18q29 217 127.5 525t249.5 686h111z" />
    <glyph glyph-name="F" unicode="F" horiz-adv-x="1290" 
d="M127 787q22 273 238 383.5t587 106.5q94 -1 214.5 -6t224.5 -6q72 0 137.5 6.5t126.5 25.5l-117 -133q-188 1 -314 16.5t-253 30.5q-30 -65 -79.5 -204t-105.5 -324h396l-72 -70q-49 18 -99.5 24.5t-82.5 6.5h-156q-38 -107 -57 -235.5t-19 -210.5q0 -68 10 -113t37 -91
l-79 -14q-13 40 -18 85t-5 81q7 212 103.5 519t195.5 553q-49 10 -89.5 15t-82.5 5q-252 -1 -395 -86.5t-146 -237.5q0 -21 6 -44t15 -42zM868 1193q-120 -308 -235.5 -693t-124.5 -594q0 -19 1 -32.5t3 -25.5l-152 -51q19 224 135.5 614t262.5 782h110z" />
    <glyph glyph-name="G" unicode="G" horiz-adv-x="1366" 
d="M879 1308q103 0 205 -24.5t200 -72.5l-84 -196q-31 110 -114 181t-230 73q-291 -25 -445 -314.5t-155 -541.5q1 -174 86.5 -278t239.5 -107q137 4 238 93.5t106 213.5q-1 80 -51 136t-140 58q-16 0 -31.5 -2.5t-33.5 -7.5l61 62q39 -2 124 -7t159 -6q86 0 149.5 5t87.5 8
q-75 -133 -122.5 -252t-83 -224t-78.5 -193t-111 -162q-66 -66 -153.5 -103.5t-192.5 -39.5q-151 3 -222.5 46t-94.5 103l126 78q-2 -8 -3 -15.5t-1 -19.5q-1 -66 49.5 -113.5t161.5 -50.5q65 1 117.5 26.5t99.5 72.5q52 55 94 134t80.5 178.5t84 220.5t104.5 262h-229
q38 -38 62.5 -91t25.5 -105q-3 -141 -123 -248t-318 -114q-216 4 -327.5 121t-112.5 310q7 317 228 602t567 304z" />
    <glyph glyph-name="H" unicode="H" horiz-adv-x="1745" 
d="M899 1277q-48 -117 -110 -283t-107 -311h66q45 157 108 319.5t115 274.5h30q-74 -158 -127 -300t-96 -294h430q103 302 254.5 520t325.5 228q66 -2 96.5 -49t30.5 -111q-6 -186 -165.5 -385.5t-403.5 -231.5q-25 -80 -47 -189t-23 -208q0 -144 48 -188.5t146 -40.5
l-12 -28l-309 -18q-14 46 -19.5 92.5t-5.5 112.5q0 126 20 232t58 235h-432q-37 -162 -60 -292t-24 -185q0 -51 14 -97t35 -80l-78 -18q-9 20 -14.5 51t-5.5 72q1 120 29.5 261t70.5 288h-63q-47 -142 -87 -322t-52 -332l-158 -18q15 123 57 283.5t117 388.5
q-118 0 -173 -12.5t-104 -40.5l43 76q20 3 72.5 4.5t169.5 1.5q56 160 110.5 297.5t102.5 243.5q-10 2 -31 3t-39 1q-228 -3 -363 -88t-138 -221q1 -22 7.5 -46t12.5 -47l-121 -41q12 144 69 235.5t187 160.5q155 62 321 80t222 16zM1835 1259q0 59 -20 95.5t-56 37.5
q-80 0 -182 -176.5t-225 -532.5q237 43 359.5 218.5t123.5 357.5z" />
    <glyph glyph-name="I" unicode="I" horiz-adv-x="1024" 
d="M1004 1277q-21 -43 -43.5 -98.5t-48 -117t-49 -126t-42.5 -127.5q-43 -136 -78.5 -303.5t-37.5 -323.5q0 -54 9 -101.5t31 -79.5l-81 -18q-10 23 -13.5 58t-3.5 82q6 243 102 567.5t205 558.5h-69q-171 -464 -253 -760.5t-93 -487.5l-158 -18q7 185 128.5 546t266.5 696
l-71 4q-221 -2 -355.5 -87t-138.5 -224q0 -29 3.5 -51t6.5 -40l-121 -41q4 82 33.5 162t87.5 139q160 135 382.5 166t275.5 25h125z" />
    <glyph glyph-name="J" unicode="J" horiz-adv-x="1024" 
d="M1004 1277q-131 -294 -219 -605t-91 -540q0 -39 4.5 -70.5t16.5 -61.5l-72 -14q-3 12 -5.5 34.5t-2.5 54.5q7 231 106 562t207 591h-143q-345 -6 -464.5 -106t-111.5 -226q0 -17 3 -34t8 -36l-121 -41q1 157 84.5 261t234.5 167q109 41 319.5 53t246.5 11zM489 288
q74 338 144 545t139 360h107q-72 -170 -123 -318.5t-86 -280.5t-65 -253t-60 -238q-31 -90 -73 -155t-97 -120q-53 -54 -131.5 -98.5t-173.5 -48.5q-95 2 -145.5 43.5t-60.5 103.5l104 84q0 -80 39.5 -125t129.5 -47q67 2 114 25.5t73 50.5q36 41 57.5 90t37 107t31 126.5
t39.5 148.5z" />
    <glyph glyph-name="K" unicode="K" horiz-adv-x="1554" 
d="M868 1277h142q-49 -98 -112 -259.5t-107 -322.5h18l119 123q138 144 360 310t426 180q40 0 73.5 -15.5t70.5 -44.5l-109 -110q-20 39 -48.5 64t-88.5 26q-138 -2 -319.5 -137.5t-368.5 -376.5q150 -333 404.5 -690.5t481.5 -388.5q56 4 89 40.5t34 70.5q0 9 -2 16.5
t-4 12.5l135 49q-33 -93 -103 -153.5t-175 -63.5q-308 28 -567 374t-404 694h-27q-30 -111 -56 -254.5t-28 -224.5q0 -52 14 -108t38 -88l-80 -18q-11 32 -16 67t-5 73q8 257 109 581.5t203 544.5h-70q-104 -245 -209.5 -578.5t-142.5 -669.5l-158 -18q40 279 158.5 628.5
t236.5 613.5q-13 2 -29 3t-40 1q-221 -2 -359.5 -85.5t-142.5 -225.5q1 -28 8 -51t12 -40l-120 -41q17 264 215.5 379.5t543.5 112.5z" />
    <glyph glyph-name="L" unicode="L" horiz-adv-x="1024" 
d="M836 1308q65 1 124.5 -25.5t96.5 -85.5l-117 -125q1 62 -9.5 99.5t-37.5 64.5q-25 24 -51.5 33.5t-55.5 9.5q-81 8 -155.5 -96t-124.5 -416q-21 -140 -54 -284.5t-75 -245.5l-137 -27q34 68 63 161t50.5 191.5t39 186.5t31.5 147q20 152 117 278t295 134zM793 1193
q-99 -90 -148 -236.5t-76.5 -312.5t-62.5 -310.5t-105 -230.5q57 -17 125.5 -30.5t151.5 -14.5q107 1 184 26t133 58l-94 -162q-14 -2 -39.5 -5t-79.5 -4q-132 1 -239 19.5t-205 53.5q-38 -30 -97.5 -50.5t-136.5 -22.5q-106 2 -161.5 38.5t-56.5 91.5q4 60 45.5 87.5
t86.5 27.5q65 -2 167 -35.5t180 -68.5q67 98 106 240.5t66.5 299t63.5 291.5t97 215zM-5 167q-36 -1 -57.5 -18.5t-22.5 -45.5q2 -45 51.5 -73.5t139.5 -29.5q64 0 109 15t84 39v4q-97 35 -176.5 70.5t-127.5 38.5z" />
    <glyph glyph-name="M" unicode="M" horiz-adv-x="2009" 
d="M934 1277q0 -10 -3 -23.5t-3 -29.5q0 -66 23.5 -154t58 -195.5t72.5 -232.5t67 -264q151 243 294 416t318 346q49 48 81.5 80t58.5 57l73 10q-100 -181 -171 -456t-74 -547q-1 -162 43.5 -207t146.5 -39l-10 -38l-307 -18q-14 35 -19.5 86.5t-5.5 112.5q3 260 58.5 509.5
t127.5 416.5l-4 6q-155 -157 -367 -464.5t-319 -579.5l-108 -69l8 114q-2 143 -34 292.5t-72 281.5t-70.5 222t-30.5 113h-4q-82 -204 -167.5 -505.5t-92.5 -465.5q0 -14 3 -28.5t3 -23.5l-121 -18q24 188 127 514t262 697h76q8 -74 29.5 -156t49 -164.5t54.5 -165.5
t45 -161q16 -58 32 -145t17 -148h6q7 15 17 37.5t24 48.5q-32 158 -71 293t-74 245.5t-58.5 198.5t-23.5 152h-111q-166 0 -294 -35t-193 -98q-46 -48 -63.5 -96t-16.5 -93q0 -19 4 -42t6 -38l-120 -41q39 293 259.5 396t563.5 96z" />
    <glyph glyph-name="N" unicode="N" horiz-adv-x="1745" 
d="M887 1277q30 -224 138 -514t290 -561h4q0 23 3 44.5t5 31.5q-140 203 -246.5 468t-134.5 519l72 32q-2 -12 -5 -29t-3 -40q6 -227 104 -471.5t219 -431.5q111 490 292 793.5t427 312.5q77 -1 127 -33t62 -86l-152 -88l10 51q-1 34 -27 59.5t-71 26.5
q-280 -49 -454.5 -539.5t-209.5 -837.5q-141 142 -293.5 442.5t-257.5 672.5h-2q-68 -173 -169 -523t-111 -524q0 -14 3 -28.5t3 -23.5l-121 -18q33 247 160 621.5t242 624.5q-197 -1 -315.5 -39t-174.5 -96q-42 -43 -60 -88.5t-18 -96.5q0 -19 4 -41t6 -37l-120 -43
q0 92 29 164.5t85 128.5q157 135 373 168.5t287 28.5z" />
    <glyph glyph-name="O" unicode="O" horiz-adv-x="1403" 
d="M879 1308q195 -1 308.5 -109t115.5 -313q-9 -328 -230.5 -611.5t-552.5 -303.5q-208 4 -315.5 119t-108.5 310q7 308 223 597.5t560 310.5zM1151 873q-2 173 -68.5 282.5t-177.5 113.5q-178 -14 -315 -229t-144 -459q1 -153 52.5 -238t138.5 -86q27 0 52 10.5t63 36.5
l-117 -127q-108 3 -178.5 97t-73.5 247q0 191 109 418t329 328q-1 5 -2.5 8.5t-5.5 3.5q-236 -48 -392.5 -316t-162.5 -565q1 -188 75 -292t206 -106q248 14 426 275t186 598z" />
    <glyph glyph-name="P" unicode="P" horiz-adv-x="1442" 
d="M803 1277h100q-127 -311 -237 -682t-119 -595l-160 -18q29 240 153 605t240 637q-14 2 -32.5 3t-36.5 1q-201 -1 -344 -81.5t-150 -234.5q0 -20 2.5 -39.5t7.5 -46.5l-121 -41q9 228 179.5 358.5t517.5 133.5zM1237 1228q-205 -17 -363 -318.5t-167 -683.5q1 -71 12 -132
t26 -94l-83 -14q-6 23 -10.5 59.5t-4.5 88.5q0 286 164 708.5t496 465.5q118 -3 165.5 -74t45.5 -168q-7 -197 -145.5 -347.5t-321.5 -158.5q-72 1 -121 26t-84 64l61 101q25 -72 70.5 -116.5t112.5 -45.5q127 12 210 158.5t86 283.5q-1 86 -42 140.5t-107 56.5z" />
    <glyph glyph-name="Q" unicode="Q" horiz-adv-x="1251" 
d="M774 1308q164 -4 274.5 -128t114.5 -313q-13 -359 -243.5 -603.5t-520.5 -254.5q-121 3 -197.5 46.5t-123.5 95.5q-24 -15 -42.5 -25t-35.5 -25q251 -155 551.5 -271.5t572.5 -153.5l-245 -71q-319 112 -590.5 234.5t-430.5 214.5l230 125q85 -83 150 -108t124 -23
q272 14 457 264.5t193 575.5q-1 191 -66 290.5t-180 100.5q-226 -21 -378.5 -264t-160.5 -459q1 -115 52 -181t141 -67q29 0 54 9.5t54 27.5l-102 -141q-12 0 -28 -3t-36 -3q-143 3 -205 88.5t-61 220.5q8 273 203 528t475 273z" />
    <glyph glyph-name="R" unicode="R" horiz-adv-x="1554" 
d="M803 1277h94q-117 -291 -226.5 -647t-131.5 -630l-158 -18q26 230 151.5 599.5t241.5 642.5q-14 2 -32.5 3t-36.5 1q-205 -1 -346.5 -82t-147.5 -234q0 -20 2.5 -39.5t7.5 -46.5l-121 -41q9 233 182 361.5t521 130.5zM1229 1279q-35 2 -84 -15t-111 -77
q-136 -148 -233 -448t-101 -554q0 -73 11 -114t26 -71l-80 -18q-5 22 -10.5 54t-5.5 86q-1 274 162.5 731t499.5 506q83 -1 144 -56t64 -151q-6 -170 -158 -283.5t-376 -156.5q256 -545 465.5 -811t363.5 -266q59 4 88 41.5t29 69.5q0 10 -1.5 16.5t-4.5 16.5l133 45
q-26 -88 -100.5 -150.5t-182.5 -66.5q-90 1 -180 44.5t-184 135.5q-86 86 -161 194t-142.5 233t-131 255t-122.5 259q231 6 380 116t154 257q-1 79 -42.5 128t-108.5 50z" />
    <glyph glyph-name="S" unicode="S" horiz-adv-x="985" 
d="M666 1308q72 0 137.5 -21.5t124.5 -58.5l-49 -127q-30 72 -88 114.5t-140 43.5q-115 -4 -167.5 -71t-51.5 -147q2 -88 62.5 -171t141.5 -166.5t141.5 -178t64.5 -209.5q-4 -124 -85 -192.5t-196 -77.5q-61 -45 -126 -60t-124 -15q-114 3 -193 36.5t-118 73.5
q-39 42 -56 88t-17 111l128 102q-8 -27 -14 -51t-6 -53q0 -95 77.5 -183.5t231.5 -94.5q124 3 189.5 80t66.5 193q-4 105 -58.5 189t-126 161.5t-124.5 161.5t-55 189q1 54 15.5 97t33.5 71q11 9 46.5 24.5t71.5 32.5q-25 -34 -45.5 -80.5t-21.5 -105.5q2 -94 59.5 -178
t132 -167t132 -171t61.5 -195q0 -60 -22.5 -107t-63.5 -92q70 6 122.5 63.5t55.5 151.5q-4 111 -67.5 203t-144.5 176t-143.5 171t-64.5 188q2 119 74.5 185t198.5 67z" />
    <glyph glyph-name="T" unicode="T" horiz-adv-x="1290" 
d="M631 1287q136 -1 323 -8t326 -8q108 0 216 4.5t169 7.5l-102 -113q-19 -2 -44.5 -4t-60.5 -2q-69 1 -198 10.5t-261 14.5q-95 -217 -175 -487t-85 -484q0 -72 11.5 -123.5t29.5 -94.5l-82 -12q-10 40 -14 71t-4 73q7 228 99 529.5t188 527.5q-205 1 -306.5 4.5
t-113.5 3.5q-176 0 -275.5 -57.5t-101.5 -175.5q0 -32 5.5 -54.5t14.5 -40.5l-120 -43q0 87 45 189.5t159 189.5q99 55 173.5 69.5t183.5 12.5zM889 1152q-171 -460 -238.5 -765.5t-66.5 -386.5l-158 -18q24 206 110 488.5t242 681.5h111z" />
    <glyph glyph-name="U" unicode="U" horiz-adv-x="1630" 
d="M1620 1277q-120 -289 -227.5 -623.5t-114.5 -515.5q-1 -59 29.5 -80t105.5 -20l-10 -38l-309 -8q51 316 177 677.5t228 578.5h-96q-34 -136 -88 -307t-162 -461q-91 -235 -208.5 -370t-274.5 -139q-120 0 -203 86t-86 272q-1 200 107.5 433.5t336.5 465.5
q-159 2 -298.5 -26t-225.5 -109q-36 -34 -57.5 -79t-22.5 -110q0 -18 4 -40.5t6 -37.5l-120 -41q-6 202 176.5 344t627.5 148q-176 -191 -278.5 -438t-104.5 -455q2 -137 56.5 -215t142.5 -80q77 -9 188 89t236 407q55 138 119 333.5t104 358.5h242z" />
    <glyph glyph-name="V" unicode="V" horiz-adv-x="1630" 
d="M475 1287q195 -9 312 -200.5t120 -458.5q0 -152 -34 -313.5t-97 -313.5l-59 -30q47 121 68.5 250t21.5 259q-4 274 -114.5 485t-284.5 222q-83 0 -144.5 -58.5t-91.5 -175.5l-27 43q51 141 134.5 215.5t195.5 75.5zM969 566q2 201 -51 380.5t-185 330.5l101 10
q82 -147 127.5 -330.5t46.5 -404.5q-2 -155 -26 -272.5t-52 -204.5h4q201 194 407 460t222 486q2 64 -22 124.5t-101 90.5l162 113q35 -46 53 -98t18 -136q-4 -135 -83 -281.5t-195.5 -291t-238.5 -272.5t-212 -226q-10 -10 -17 -19t-20 -25l-53 -29q51 112 82.5 256
t32.5 339z" />
    <glyph glyph-name="W" unicode="W" horiz-adv-x="2124" 
d="M475 1287q197 -8 306.5 -197.5t111.5 -457.5q-2 -178 -50.5 -337.5t-115.5 -294.5l-53 -29q62 142 85.5 283.5t22.5 264.5q-4 281 -106.5 470.5t-253.5 197.5q-83 0 -146.5 -58t-103.5 -176l-25 41q49 141 133 216.5t195 76.5zM952 581q2 174 -49 360t-174 336l80 31
q86 -146 133.5 -316t48.5 -381q-1 -136 -30.5 -277.5t-73.5 -262.5l4 -2q99 91 237.5 278.5t206.5 452.5q-55 149 -132 256.5t-152 165.5l112 86q197 -202 263 -422t61 -395q-1 -115 -23 -254t-55 -237l-53 -31q37 103 49.5 207.5t11.5 195.5q-1 97 -11.5 171.5t-25.5 135.5
h-4q-104 -207 -255.5 -393.5t-252.5 -284.5l-57 -30q56 110 97.5 266.5t43.5 343.5zM1487 -29q34 92 54.5 217t21.5 253q-3 275 -82 490t-203 342l72 35q138 -204 191 -424t50 -426q0 -111 -10 -194.5t-29 -168.5l4 -4q201 239 318.5 456.5t120.5 436.5q0 101 -22.5 168.5
t-69.5 110.5l131 86q28 -48 44.5 -110t16.5 -138q-2 -160 -55 -305.5t-134 -276.5t-172.5 -247.5t-170.5 -219.5q-7 -10 -15 -24t-16 -27z" />
    <glyph glyph-name="X" unicode="X" horiz-adv-x="1630" 
d="M1692 1410q73 0 125.5 -33.5t70.5 -93.5l-149 -104q3 9 4.5 19.5t1.5 19.5q0 48 -31 79.5t-90 32.5q-199 -10 -347 -234.5t-155 -549.5q-1 -179 60 -313.5t196 -141.5q67 0 122.5 35.5t90.5 101.5l25 -10q-54 -122 -145 -184t-220 -63q-168 1 -254 143t-86 422v133h-4
q-94 -235 -299 -458t-461 -240q-143 5 -212.5 72t-70.5 151q1 12 2 20t2 14l142 97q-8 -21 -15.5 -49t-9.5 -58q1 -61 44 -109t135 -51q248 18 485.5 263.5t255.5 504.5q0 152 -71.5 254.5t-208.5 106.5l-62 -6l111 127q51 0 108.5 -22t108.5 -70q67 -69 97.5 -173
t29.5 -241q0 -93 5.5 -223.5t14.5 -249.5q36 -172 116 -248t165 -74q72 1 121 33t88 78l-6 6q-30 -26 -68.5 -43.5t-87.5 -18.5q-144 7 -213.5 151.5t-69.5 342.5q8 379 182.5 613t426.5 241z" />
    <glyph glyph-name="Y" unicode="Y" horiz-adv-x="1290" 
d="M1122 1277h207l-340 -1100q-95 -269 -249.5 -418t-393.5 -152q-144 3 -222.5 44.5t-109.5 102.5l140 90q0 -5 -1 -12t-1 -16q-1 -69 55.5 -123t187.5 -58q140 1 254.5 130.5t212.5 380.5q37 109 82 255.5t89 303t86 299t75 244.5h-49q-69 -331 -217 -692t-353 -391
q-115 2 -145.5 120t-32.5 324q-15 277 -25 415t-55 181q-23 24 -50 29t-77 4l13 39l264 10q13 -115 31 -342t28 -473q2 -118 23 -163.5t72 -43.5q127 7 258.5 280.5t242.5 731.5z" />
    <glyph glyph-name="Z" unicode="Z" horiz-adv-x="1100" 
d="M453 1308q136 -4 257.5 -35.5t268.5 -36.5q52 0 104 8.5t91 24.5l-68 -121q-101 -96 -254 -278.5t-285 -446.5q-37 -74 -62.5 -138.5t-72.5 -133.5q70 -26 158.5 -48.5t169.5 -23.5q99 2 176.5 30.5t128.5 61.5l-80 -156q-39 -16 -91 -29t-108 -15q-125 3 -239 30
t-199 55q-39 -36 -95.5 -59.5t-139.5 -25.5q-100 2 -163 38.5t-66 100.5q3 57 49 91.5t112 35.5q74 -2 177 -29t175 -49q27 37 54.5 91t57.5 118.5t60.5 129t65.5 122.5q70 120 173.5 248.5t195.5 220.5q11 10 24 22.5t27 26.5l-39 -2l-45 2q-78 -74 -286.5 -336.5
t-274.5 -491.5l-146 -47q47 211 262 468t371 407q-94 10 -232 28.5t-216 20.5q-62 0 -115.5 -13t-95.5 -36l120 164q17 3 39.5 4.5t55.5 1.5zM313 69q-52 19 -151 56.5t-169 41.5q-29 0 -48.5 -18t-21.5 -48q2 -41 51.5 -70.5t136.5 -30.5q69 1 117 19t81 46z" />
    <glyph glyph-name="bracketleft" unicode="[" horiz-adv-x="569" 
d="M481 1412l328 80l12 -35l-227 -82l-447 -1402l150 -202l-31 -21l-229 253z" />
    <glyph glyph-name="backslash" unicode="\" horiz-adv-x="797" 
d="M285 1308l143 -31q12 -94 36.5 -221t52.5 -263.5t54.5 -263.5t46.5 -221q23 -116 62.5 -276t77.5 -278l-131 31q-18 90 -42 224t-44 221q-31 131 -63 279.5t-63.5 295t-65.5 276.5t-64 227z" />
    <glyph glyph-name="bracketright" unicode="]" horiz-adv-x="569" 
d="M-183 -250l-13 35l229 82l444 1402l-149 203l30 20l230 -256l-445 -1406z" />
    <glyph glyph-name="asciicircum" unicode="^" horiz-adv-x="1100" 
d="M612 1492l428 -651h-98l-369 569h-2l-358 -569h-98l417 651h80z" />
    <glyph glyph-name="underscore" unicode="_" horiz-adv-x="1024" 
d="M0 -154h1022v-100h-1022v100z" />
    <glyph glyph-name="quoteleft" unicode="&#x2018;" horiz-adv-x="569" 
d="M406 900q-43 1 -65 29.5t-22 68.5q11 135 118 217.5t177 92.5l7 -29q-87 -26 -134.5 -75.5t-48.5 -94.5q4 -36 30 -57t30 -66q-1 -38 -26 -61.5t-66 -24.5z" />
    <glyph glyph-name="a" unicode="a" horiz-adv-x="1063" 
d="M948 888q-91 -250 -159.5 -482.5t-71.5 -302.5q1 -24 14 -34.5t29 -10.5q95 10 240.5 161t267.5 321l-17 -52q-103 -145 -273.5 -322.5t-318.5 -194.5q-45 1 -69.5 27.5t-24.5 76.5q0 28 10.5 74.5t30 107.5t44 134t50.5 155l-20 8q-93 -254 -224.5 -415.5t-281.5 -167.5
q-78 3 -120 58t-42 146q13 214 196.5 453.5t379.5 259.5q53 1 89.5 -33.5t37.5 -120.5q0 -27 -4 -53.5t-9 -56.5l17 -7l82 254zM246 58q129 15 264.5 209t146.5 381q0 68 -34 118t-103 52q-161 -21 -267 -233t-110 -363q1 -84 31.5 -124t71.5 -40z" />
    <glyph glyph-name="b" unicode="b" horiz-adv-x="985" 
d="M170 138q0 -59 34 -90t103 -31q42 0 61.5 11t34.5 28q-49 41 -78 100t-30 167q2 183 106 367t289 198q86 -2 134.5 -59.5t49.5 -147.5q-8 -169 -130 -346t-259 -270v-5q21 -8 42.5 -15t52.5 -7q153 8 312 156.5t292 345.5l-17 -52q-97 -151 -259.5 -313t-344.5 -175
q-35 0 -66.5 9t-66.5 25q-42 -26 -105 -43.5t-122 -19.5q-82 2 -123 40t-41 101q0 37 12 92t36 128t54.5 168t69.5 212q43 139 75.5 247.5t56.5 187.5t36 130t14 78q1 43 -30 62.5t-109 19.5l10 28l314 27l-254 -803q-29 -94 -56.5 -176t-49 -150.5t-35 -125t-13.5 -99.5z
M733 624q1 77 -28.5 129.5t-96.5 54.5q-103 -8 -186 -145.5t-88 -313.5q-1 -88 27 -156t90 -114q106 82 191.5 231.5t90.5 313.5z" />
    <glyph glyph-name="c" unicode="c" horiz-adv-x="797" 
d="M827 847l-53 -125q-26 39 -68.5 76.5t-123.5 40.5q-183 -19 -300.5 -225.5t-121.5 -372.5q0 -99 47.5 -146t144.5 -47q197 12 367.5 172t277.5 320l-18 -47q-94 -159 -285 -332.5t-436 -189.5q-113 1 -176 57.5t-64 169.5q7 197 184.5 433t442.5 257q45 0 90.5 -10.5
t91.5 -30.5z" />
    <glyph glyph-name="d" unicode="d" horiz-adv-x="1063" 
d="M1120 1492q-108 -344 -187 -590t-130 -407.5t-77 -255t-24 -131.5q1 -25 15 -37.5t31 -12.5q86 9 233 155t283 327l-17 -52q-106 -145 -282.5 -322.5t-317.5 -194.5q-41 1 -63.5 22.5t-22.5 62.5q0 29 11.5 79t31 115.5t45 142.5t51.5 159h-16q-98 -254 -227.5 -414.5
t-272.5 -166.5q-80 2 -123.5 56.5t-44.5 147.5q13 215 197.5 454t380.5 259q48 1 84.5 -38.5t38.5 -127.5q0 -27 -2 -47.5t-6 -50.5h16q37 125 74 241.5t67.5 216t49 170t20.5 103.5q-1 52 -38.5 68t-100.5 14l10 28zM254 69q128 18 264.5 215.5t147.5 353.5q0 66 -37 116.5
t-105 53.5q-151 -19 -261.5 -223t-115.5 -361q1 -73 30.5 -113.5t76.5 -41.5z" />
    <glyph glyph-name="e" unicode="e" horiz-adv-x="797" 
d="M602 888q59 0 93.5 -35t35.5 -98q-5 -121 -129.5 -243t-308.5 -132q-26 0 -57 4t-58 12q-10 -29 -18.5 -74.5t-9.5 -86.5q-1 -87 42.5 -136.5t147.5 -50.5q152 0 316 121.5t337 359.5l-14 -47q-136 -206 -318.5 -354.5t-398.5 -156.5q-123 2 -183.5 61t-60.5 168
q11 215 190 442.5t394 245.5zM203 478q32 -19 76 -38.5t102 -20.5q106 7 172 108t68 209q0 52 -22.5 82t-61.5 31q-96 -5 -183 -112.5t-151 -258.5z" />
    <glyph glyph-name="f" unicode="f" horiz-adv-x="569" 
d="M981 1455l-51 -164q-15 89 -59 130.5t-105 41.5q-74 0 -128 -52t-94 -138t-72 -189.5t-62 -207.5h419l-59 -54q-51 5 -117 10t-256 5l-266 -847q-75 -228 -189 -357.5t-291 -132.5q-56 2 -96.5 13t-69.5 26l51 164q10 -76 51 -124t113 -50q115 4 183 125.5t123 320.5
l270 862q-91 -1 -138.5 -6t-74.5 -9l48 54h178q64 250 185 429t345 187q45 0 85 -10t77 -27z" />
    <glyph glyph-name="g" unicode="g" horiz-adv-x="1063" 
d="M600 888q59 0 92 -40t33 -116q0 -28 -5 -55.5t-11 -54.5h22l78 256l133 10q-31 -80 -66.5 -191.5t-73.5 -235.5t-71 -236.5t-57 -196.5q137 23 289.5 165t300.5 347l-17 -52q-118 -167 -284.5 -330t-305.5 -178q-88 -259 -233.5 -370.5t-323.5 -109.5q-171 3 -273.5 67
t-106.5 165q7 109 109.5 182t223.5 116q-19 29 -29 63t-10 72q14 229 202.5 466.5t383.5 256.5zM145 226q0 -70 28 -113t81 -44q137 17 270.5 212t143.5 367q0 66 -34 112t-99 48q-155 -17 -269.5 -214.5t-120.5 -367.5zM686 552q-87 -236 -221 -404t-293 -177
q-22 1 -45.5 9.5t-44.5 24.5l-6 2q-111 -38 -176.5 -104t-68.5 -147q3 -89 84 -156t218 -71q67 1 121.5 23.5t95.5 62.5q51 55 91 139t79 199.5t84 265t105 333.5h-23z" />
    <glyph glyph-name="h" unicode="h" horiz-adv-x="1063" 
d="M784 888q61 -1 94.5 -36.5t34.5 -92.5q-2 -39 -28.5 -125t-61.5 -187.5t-60.5 -192.5t-25.5 -144q0 -24 12.5 -38t30.5 -14q103 16 254 183t240 299l-17 -52q-95 -144 -261 -322t-300 -195q-46 2 -72.5 27.5t-27.5 66.5q0 45 27.5 141t63.5 205.5t64.5 198.5t30.5 122
q-1 33 -21.5 54t-51.5 22q-89 5 -229 -181.5t-312 -626.5l-177 -29l290 927q-83 8 -123 41t-58 102l78 62q-1 -54 25 -94.5t94 -55.5q74 238 196.5 386.5t301.5 152.5q94 -2 134.5 -46.5t39.5 -105.5q-12 -154 -189 -284t-381 -166l-276 -883h27q166 451 323.5 667
t310.5 214zM416 939q138 2 294 104t169 279q-1 64 -38 102t-93 39q-68 0 -120.5 -54t-92 -137t-68.5 -172t-51 -161z" />
    <glyph glyph-name="i" unicode="i" horiz-adv-x="494" 
d="M436 1402q45 -1 67.5 -25t22.5 -63q-1 -41 -26 -68t-66 -28q-43 1 -67.5 24.5t-24.5 63.5q1 45 28 70.5t66 25.5zM397 888q-65 -201 -109 -338t-71 -224t-38 -135.5t-9 -70.5q0 -28 9.5 -45t33.5 -17q90 9 228.5 153t260.5 318l-16 -51q-113 -165 -269.5 -329
t-285.5 -178q-51 3 -76.5 34t-25.5 74q0 37 26.5 127t62.5 199.5t64.5 207t30.5 144.5q0 50 -34 65t-109 13l8 28z" />
    <glyph glyph-name="j" unicode="j" horiz-adv-x="455" 
d="M358 1306q1 42 28 68.5t67 27.5q42 -2 66 -31t24 -63q-1 -38 -26.5 -63.5t-63.5 -26.5q-40 1 -67 24.5t-28 63.5zM92 863l320 25l-295 -919q-87 -257 -189 -364t-234 -105q-67 1 -114 10.5t-89 30.5l61 103q20 -39 63 -75.5t120 -39.5q83 -1 141.5 103.5t122.5 332.5
q36 128 76 253t73.5 233.5t55 188.5t23.5 117q0 50 -34 65t-109 13z" />
    <glyph glyph-name="k" unicode="k" horiz-adv-x="1024" 
d="M618 1492l-471 -1483h33q108 346 255.5 606t322.5 273q61 -2 96.5 -44t36.5 -102q-6 -129 -114.5 -194.5t-248.5 -85.5q45 -192 85.5 -297.5t97.5 -106.5q91 9 230 153t267 316l-16 -49q-87 -120 -253 -303.5t-286 -203.5q-67 2 -131 133.5t-114 379.5q13 -3 26 -5.5
t27 -2.5q130 1 227.5 62.5t102.5 171.5q1 40 -20.5 73t-74.5 35q-137 -15 -270.5 -266.5t-222.5 -553.5l-187 -27q95 307 171.5 546.5t132 411.5t84 278.5t30.5 147.5q1 45 -32 64t-107 18l12 28z" />
    <glyph glyph-name="l" unicode="l" horiz-adv-x="530" 
d="M606 1492q-88 -285 -163.5 -521.5t-133 -414.5t-89.5 -289.5t-32 -150.5q0 -27 11.5 -42.5t33.5 -15.5q105 15 259 179.5t239 291.5l-16 -51q-100 -147 -268 -319t-314 -188q-41 2 -63.5 28t-22.5 72q2 41 57.5 219t128 404.5t129 413.5t60.5 247q0 46 -33.5 64.5
t-105.5 17.5l10 28z" />
    <glyph glyph-name="m" unicode="m" horiz-adv-x="1593" 
d="M414 888l-273 -881h23q95 285 258 572t364 309q53 -1 84.5 -33t32.5 -84q-2 -31 -16.5 -86t-42 -144t-68.5 -220.5t-94 -313.5h27q93 285 255 572t361 309q60 -1 90.5 -35t30.5 -86q-2 -39 -28.5 -127t-60.5 -194.5t-59.5 -197.5t-25.5 -138q0 -24 12 -38t33 -14
q86 14 233.5 174t247.5 299l-18 -53q-96 -135 -263.5 -312t-304.5 -195q-37 1 -59 23t-23 64q0 52 27 143t62.5 198.5t64.5 201.5t31 146q0 24 -14.5 46.5t-47.5 24.5q-128 -14 -270.5 -260t-253.5 -558l-186 -29q61 198 105 335t70.5 225.5t40 138.5t13.5 74
q0 32 -15.5 52.5t-49.5 21.5q-143 -21 -285.5 -288t-233.5 -530l-184 -29q23 77 59.5 194t75.5 240.5t65.5 223t28.5 140.5q1 40 -30.5 52.5t-106.5 11.5l10 28z" />
    <glyph glyph-name="n" unicode="n" horiz-adv-x="1100" 
d="M809 888q56 -1 86.5 -34.5t30.5 -82.5q-2 -49 -29 -137t-60.5 -189.5t-59 -191.5t-25.5 -143q0 -18 10 -34.5t33 -17.5q92 16 248.5 182t242.5 289l-16 -51q-102 -143 -273 -316.5t-307 -190.5q-35 2 -57 25t-23 62q0 45 27 140.5t62.5 206t64.5 203.5t31 134
q0 36 -17 56t-49 20q-136 -17 -282 -271t-250 -547l-185 -29q62 204 106 345.5t70.5 230.5t40 141t13.5 81q1 39 -31 52t-107 12l9 28l309 27q-27 -84 -62.5 -199t-75.5 -238.5t-75 -239.5t-59 -204h22q108 320 273 592t364 289z" />
    <glyph glyph-name="o" unicode="o" horiz-adv-x="948" 
d="M639 888q104 -2 151 -60.5t46 -146.5q-9 -186 -133 -360.5t-248 -266.5q13 -8 35 -12t42 -4q154 6 312 148t301 354l-17 -52q-96 -150 -260 -312.5t-342 -175.5q-38 0 -68 7.5t-50 18.5q-41 -20 -86.5 -36.5t-108.5 -18.5q-98 2 -145.5 60t-47.5 161q9 215 191.5 446
t427.5 250zM416 71q111 95 192.5 246t85.5 307q0 78 -31 134.5t-98 59.5q-112 -10 -190.5 -159.5t-81.5 -313.5q0 -84 29.5 -156t93.5 -118zM487 810l-6 14q-151 -86 -244 -260t-96 -336q1 -99 43 -145t119 -45l62 8l4 4q-58 49 -82 110.5t-23 147.5q-2 130 48 267t175 235z
" />
    <glyph glyph-name="p" unicode="p" horiz-adv-x="985" 
d="M750 888q67 -3 100 -60t33 -137q-9 -229 -169 -464.5t-364 -255.5q-50 1 -87.5 17.5t-61.5 53.5l80 68q15 -48 44 -75.5t76 -27.5q149 21 248 247t103 402q0 58 -19 94t-57 37q-26 0 -59 -15.5t-70 -51.5q-137 -142 -268 -456t-248 -737l-186 -27q82 267 149 481.5
t117.5 374t77 259t28.5 136.5q2 41 -28 61.5t-111 20.5l10 28l313 27l-425 -1353h32q120 433 315.5 875.5t426.5 477.5z" />
    <glyph glyph-name="q" unicode="q" horiz-adv-x="985" 
d="M928 888q-43 -119 -96.5 -285t-110.5 -353.5t-114.5 -375t-108.5 -355.5l-154 -19q47 127 91 260.5t86 268t83 266.5t84 257h-16q-82 -227 -211 -399t-285 -182q-83 2 -125.5 56.5t-42.5 147.5q14 228 201 461.5t379 251.5q59 -3 90 -53t31 -117q0 -26 -4 -46.5t-9 -49.5
h15l77 254zM248 69q123 16 261 206t150 363q0 68 -37 118t-106 52q-153 -19 -262.5 -221t-114.5 -363q1 -73 30 -113.5t79 -41.5z" />
    <glyph glyph-name="r" unicode="r" horiz-adv-x="758" 
d="M406 888l-273 -879h27q65 214 233 530.5t385 348.5q18 0 31 -4t27 -11l-78 -172q-13 32 -31 49t-55 17q-162 -28 -297 -303.5t-193 -463.5l-183 -29q52 180 94 315t72 232t44 158.5t16 90.5q2 35 -25.5 50.5t-111.5 15.5l10 28z" />
    <glyph glyph-name="s" unicode="s" horiz-adv-x="872" 
d="M557 888q66 -1 108.5 -25t73.5 -57l-63 -109q-10 67 -46 113.5t-98 48.5q-46 -1 -72.5 -30t-27.5 -74q0 -49 26.5 -109.5t62.5 -128t62.5 -136.5t28.5 -134q-1 -58 -25.5 -101t-62.5 -75q6 -2 13.5 -3t17.5 -1q113 11 260.5 161.5t261.5 311.5q-6 -20 -8.5 -29t-5.5 -16
q-91 -141 -247.5 -302.5t-315.5 -175.5l-39 2q-40 -21 -83.5 -34t-88.5 -14q-126 2 -211 78.5t-89 209.5q1 100 52.5 171t153.5 116l108 -66q-108 -15 -167 -84.5t-60 -160.5q3 -107 69.5 -170t163.5 -65q76 0 128.5 46.5t54.5 140.5q-3 74 -27.5 138.5t-55 125t-54 118
t-23.5 112.5q2 91 64 148t161 59z" />
    <glyph glyph-name="t" unicode="t" horiz-adv-x="530" 
d="M487 1156l-90 -280h342l-28 -52q-30 3 -135 8t-189 5q-51 -158 -90 -283t-65.5 -216t-40 -146.5t-13.5 -75.5q0 -33 14.5 -46t45.5 -12q107 16 258 183t239 286q-38 -84 -154.5 -223.5t-168.5 -191.5q-51 -52 -114.5 -94.5t-123.5 -46.5q-60 1 -88.5 32.5t-28.5 95.5
q-2 39 10.5 91.5t37 133.5t65.5 204.5t96 308.5q-52 0 -116 -5t-89 -8l33 52h182q19 68 34 132t20 105z" />
    <glyph glyph-name="u" unicode="u" horiz-adv-x="1063" 
d="M393 888q-37 -121 -77 -246t-74.5 -236.5t-56 -189.5t-21.5 -102q0 -28 18.5 -51.5t55.5 -24.5q151 18 302 276t248 547l162 27q-51 -154 -92 -282t-71.5 -226t-47 -162.5t-16.5 -97.5q0 -29 10 -45.5t33 -16.5q94 11 235.5 160.5t253.5 310.5l-18 -53
q-118 -170 -272 -331t-279 -174q-51 2 -77.5 31.5t-26.5 76.5q0 33 25.5 123t64.5 209.5t77.5 236.5t65.5 201l-6 2q-106 -327 -276 -595t-369 -285q-59 2 -90 32.5t-31 83.5q0 62 24.5 156t58.5 196.5t59.5 188.5t27.5 129q1 47 -30 62t-107 14l10 28z" />
    <glyph glyph-name="v" unicode="v" horiz-adv-x="985" 
d="M485 888q-76 -72 -200.5 -262.5t-137.5 -386.5q1 -89 41.5 -135t108.5 -46q86 3 153 48.5t113 95.5q-31 43 -49 96.5t-18 128.5q2 157 76.5 303.5t199.5 157.5q60 -2 88.5 -48t28.5 -106q-5 -141 -93.5 -290.5t-193.5 -254.5v-4q27 -23 55 -35t72 -12q131 7 253 128
t212 270l-16 -52q-82 -136 -201 -246.5t-250 -117.5q-35 0 -73.5 13.5t-67.5 41.5h-2q-106 -105 -195.5 -154t-173.5 -50q-102 3 -155.5 69.5t-53.5 171.5q0 115 37 213t86 176t87 130t40 73q-1 15 -18 25t-39 10q-12 0 -22 -1.5t-23 -9.5l14 50zM582 220q74 75 137 207
t67 274q0 64 -16.5 100.5t-48.5 37.5q-69 -9 -131 -140.5t-66 -271.5q0 -67 13.5 -117.5t44.5 -89.5z" />
    <glyph glyph-name="w" unicode="w" horiz-adv-x="1290" 
d="M485 888q-77 -72 -205.5 -263.5t-142.5 -387.5q1 -98 30 -139t73 -40q73 3 134 79t97 188q41 168 86 282.5t121 239.5l119 10q-69 -100 -132 -272.5t-67 -317.5q0 -75 25.5 -130t83.5 -58q61 3 108 37.5t76 70.5q-37 38 -56.5 101.5t-19.5 142.5q3 167 79 307.5
t191 149.5q59 -1 84.5 -40.5t24.5 -109.5q-6 -129 -90 -286.5t-174 -264.5v-2q17 -17 44.5 -25.5t61.5 -8.5q129 7 250 123.5t215 259.5l-16 -50q-76 -114 -190 -233t-248 -129q-30 0 -66 10.5t-70 28.5q-41 -53 -117.5 -118.5t-168.5 -71.5q-92 7 -126 89t-32 166h-4
q-52 -98 -127.5 -174t-161.5 -81q-75 2 -121 64t-47 175q0 117 37 216t86 176t87 129t40 73q-1 15 -18 25t-39 10q-12 0 -22 -1.5t-23 -9.5l14 50zM909 208q78 89 135 225t60 271q0 66 -19.5 100.5t-56.5 34.5q-65 -8 -127 -135t-67 -279q0 -79 19.5 -131t55.5 -86z" />
    <glyph glyph-name="x" unicode="x" horiz-adv-x="1024" 
d="M543 888q37 1 54 -28.5t17 -100.5q0 -133 -3.5 -192t-4.5 -62l4 -17q100 189 206 293.5t198 106.5q30 0 44.5 -10t28.5 -25l-81 -100q-8 21 -20.5 33t-33.5 12q-73 -2 -166.5 -102.5t-181.5 -274.5q-2 -117 20.5 -240t100.5 -133q89 7 224 149t272 332l-17 -51
q-84 -126 -247 -307t-293 -200q-104 7 -136.5 128t-35.5 281l-7 -4q-100 -174 -206.5 -287t-212.5 -118q-40 1 -63 12t-35 30l98 92q2 -39 21 -54.5t38 -12.5q81 10 186 141.5t181 259.5q0 133 1 179.5t1 52.5q0 36 -10 60.5t-31 25.5q-47 -7 -122.5 -98.5t-140.5 -180.5
l17 49q94 147 182.5 251.5t153.5 109.5z" />
    <glyph glyph-name="y" unicode="y" horiz-adv-x="1100" 
d="M31 878l256 10q13 -87 19 -257t16 -372q3 -90 19.5 -139.5t51.5 -50.5q106 23 222 292.5t188 505.5l188 21l-266 -850q139 23 282.5 152.5t301.5 347.5l-17 -50q-163 -229 -315 -362t-272 -149q-68 -236 -207.5 -356t-350.5 -121q-143 2 -231.5 58t-92.5 153
q12 136 146.5 222t261.5 123q-17 52 -24 111.5t-10 144.5q-7 186 -14 322.5t-40 175.5q-24 21 -64 25.5t-59 3.5zM571 -53l275 906h-25q-73 -251 -205 -552.5t-280 -329.5q-40 3 -63.5 24t-32.5 41q-125 -44 -213.5 -120.5t-93.5 -177.5q2 -84 72 -140t196 -59
q173 9 249.5 135t120.5 273z" />
    <glyph glyph-name="z" unicode="z" horiz-adv-x="909" 
d="M203 550q49 86 81 173t50 173q26 -30 60 -48.5t102 -19.5q81 1 201.5 19t203.5 41l-33 -101l-598 -677q248 -1 352 4.5t152 25.5l-57 -144l-117 4h-530l47 95q37 41 119.5 122t187 180.5t206 198.5t179.5 173l-4 6q-62 -13 -152 -29.5t-184 -17.5q-49 0 -76.5 5t-52.5 20
q-26 -42 -58.5 -101.5t-99.5 -160.5z" />
    <glyph glyph-name="braceleft" unicode="{" horiz-adv-x="1100" 
d="M930 1625v-49q-109 -30 -164 -105.5t-55 -183.5q2 -66 14 -164t14 -159q-4 -142 -94 -227t-221 -130v-6q140 -52 226.5 -138.5t88.5 -213.5q-2 -71 -14 -163t-14 -162q3 -122 66 -195t153 -94v-49q-86 -2 -249 76.5t-181 280.5q4 94 28.5 203t28.5 172q-2 92 -64 161
t-161 102v47q109 37 167 104t58 158q-4 61 -28.5 168t-28.5 215q10 163 149 256.5t281 95.5z" />
    <glyph glyph-name="bar" unicode="|" horiz-adv-x="682" 
d="M391 1533v-2043h-100v2043h100z" />
    <glyph glyph-name="braceright" unicode="}" horiz-adv-x="1100" 
d="M246 1576v49q142 -2 281 -95.5t149 -256.5q-4 -108 -29 -215t-29 -168q0 -90 58 -157.5t168 -104.5v-47q-99 -33 -161.5 -102t-64.5 -161q4 -66 29 -170.5t29 -206.5q-14 -179 -162.5 -266.5t-267.5 -88.5v49q92 21 154 94t65 195q-2 70 -14.5 163t-14.5 162
q2 127 88.5 213t227.5 139v6q-131 46 -221.5 130t-94.5 227q2 61 14.5 159t14.5 164q0 106 -54.5 182t-164.5 107z" />
    <glyph glyph-name="asciitilde" unicode="~" horiz-adv-x="1100" 
d="M264 587q66 0 140.5 -33t150.5 -77t148.5 -77.5t136.5 -35.5q96 2 127 55.5t49 130.5h63q1 -91 -61.5 -185t-198.5 -102q-76 2 -152.5 36t-151.5 78t-143.5 76.5t-129.5 32.5q-78 2 -119 -40t-60 -146h-63q9 108 70.5 195t193.5 92z" />
    <glyph glyph-name="twosuperior" unicode="&#xb2;" 
d="M74 155h155v-155h-155v155z" />
    <glyph glyph-name="threesuperior" unicode="&#xb3;" 
d="M74 155h155v-155h-155v155z" />
    <glyph glyph-name="registered" unicode="&#xae;" horiz-adv-x="1024" 
d="M655 593q-195 4 -334 130.5t-145 330.5q6 201 144.5 327.5t336.5 130.5q191 -4 330 -130t146 -328q-5 -195 -140.5 -325.5t-337.5 -135.5zM1063 1054q-4 163 -119.5 273.5t-288.5 115.5q-172 -4 -288 -114t-121 -275q4 -162 118 -274t291 -117q174 4 289 115.5t119 275.5
zM604 1050v-133q-1 -48 14 -62t64 -18v-37h-264v37q45 2 61 17.5t15 55.5v310q0 42 -17.5 52.5t-58.5 14.5v39h270q95 1 147.5 -29.5t53.5 -101.5q0 -56 -37 -89t-107 -42l-4 -4q82 -58 94 -120t44 -67q21 1 28 20.5t6 45.5h39q0 -61 -28 -99.5t-80 -39.5q-97 9 -108.5 92.5
t-47.5 136.5q-12 12 -32 16.5t-52 4.5zM676 1287q-39 0 -55.5 -14t-16.5 -49v-133q69 0 97.5 6.5t37.5 17.5q12 10 19.5 27.5t7.5 44.5q1 44 -18 71.5t-72 28.5z" />
    <glyph glyph-name="copyright" unicode="&#xa9;" horiz-adv-x="1024" 
d="M655 593q-195 4 -334 130.5t-145 330.5q6 201 144.5 327.5t336.5 130.5q191 -4 330 -130t146 -328q-5 -195 -140.5 -325.5t-337.5 -135.5zM1063 1054q-4 165 -119.5 275t-288.5 114q-173 -4 -289 -114t-120 -275q4 -162 118 -274t291 -117q174 4 289 115.5t119 275.5z
M866 1340v-206l-28 -7q-34 94 -70 134t-86 41q-56 3 -99.5 -51.5t-45.5 -196.5q-1 -95 33.5 -163t119.5 -71q60 1 96.5 40t47.5 110l40 2q-2 -75 -46.5 -134.5t-155.5 -62.5q-108 0 -185 69.5t-81 205.5q3 123 77.5 206t178.5 86q50 -2 85 -16t54 -16q13 1 21 11.5t16 18.5
h28z" />
    <glyph glyph-name="dagger" unicode="&#x2020;" horiz-adv-x="1100" 
d="M821 1308q-38 -90 -69.5 -180t-79.5 -259q143 0 206.5 3.5t82.5 5.5l-25 -74q-36 3 -91.5 4.5t-189.5 1.5q-62 -200 -151.5 -500t-141.5 -509l-133 -41q29 95 71 225.5t89 279t93 289.5t83 256q-109 0 -161 -2t-121 -4l24 74q59 -2 104 -5.5t175 -3.5l119 398z" />
    <glyph glyph-name="trademark" unicode="&#x2122;" horiz-adv-x="1251" 
d="M362 1078v377q-80 -12 -108.5 -50t-50.5 -120h-37l10 207h477l11 -207h-37q-26 90 -55.5 124.5t-104.5 45.5v-377q-2 -68 15.5 -88.5t82.5 -23.5v-33h-311v33q68 2 89 23.5t19 88.5zM692 933v33q60 8 78 26.5t16 81.5v320q0 39 -15.5 50.5t-53.5 10.5v37h203l114 -371
l6 4q27 78 64.5 185.5t62.5 181.5h219v-37q-49 -4 -68 -17.5t-18 -66.5v-309q-1 -56 14.5 -74t61.5 -22v-33h-252v33q43 6 58 24t14 80v371h-6l-170 -508h-33l-151 489h-5v-350q-1 -59 11 -79.5t49 -26.5v-33h-199z" />
    <glyph glyph-name="brokenbar" unicode="&#xa6;" horiz-adv-x="569" 
d="M266 1379h101v-714h-101v714zM266 355h101v-711h-101v711z" />
    <glyph glyph-name="cedilla" unicode="&#xb8;" horiz-adv-x="1020" 
d="M393 -111q84 1 131.5 -40t48.5 -119q1 -72 -49.5 -122.5t-163.5 -53.5q-73 1 -145 21t-145 56l32 70q69 -33 125 -51t97 -19q53 1 87 22t35 60q0 45 -26 74t-84 29l-90 -13l57 193h62l-33 -111z" />
    <glyph glyph-name="onesuperior" unicode="&#xb9;" 
d="M74 155h155v-155h-155v155z" />
    <glyph glyph-name="multiply" unicode="&#xd7;" horiz-adv-x="1700" 
d="M385 1168l471 -471l471 471l94 -94l-471 -471l471 -471l-94 -94l-471 471l-471 -471l-94 94l471 471l-471 471z" />
    <glyph glyph-name="quotesingle" unicode="'" horiz-adv-x="569" 
d="M514 1277l-45 -379h-49l-47 379h141z" />
    <glyph glyph-name="perthousand" unicode="&#x2030;" horiz-adv-x="2238" 
d="M489 1246q92 -2 143.5 -57t67.5 -139q20 -4 39 -9t41 -6q139 3 277.5 74t257.5 168l33 -29q-184 -181 -302 -322.5t-305 -406.5q-89 -137 -160.5 -267t-115.5 -249l-156 -32q86 175 212 356t237 317q144 173 279 322.5t214 228.5l-6 4q-51 -31 -111.5 -66.5t-125 -69.5
t-130 -54.5t-122.5 -22.5q-20 0 -32 2t-19 2q-1 -139 -96.5 -302.5t-272.5 -178.5q-103 3 -159.5 78.5t-57.5 187.5q5 172 111 317t259 154zM199 751q1 -99 39 -155.5t106 -57.5q110 10 189 156.5t83 308.5q0 96 -35.5 154.5t-101.5 60.5q-105 -8 -190 -149.5t-90 -317.5z
M1204 726q97 -2 154.5 -68t58.5 -172q-4 -182 -112 -329.5t-269 -156.5q-97 3 -150.5 71t-54.5 172q4 179 110 326.5t263 156.5zM1337 499q0 90 -37 143.5t-108 54.5q-119 -10 -198.5 -156.5t-82.5 -312.5q2 -105 44 -153t102 -47q117 10 197 156.5t83 314.5zM2034 499
q0 90 -37.5 143.5t-108.5 54.5q-119 -10 -198 -156.5t-82 -312.5q2 -105 43.5 -153t101.5 -47q121 11 199.5 161t81.5 310zM1901 726q101 -2 156.5 -69.5t56.5 -170.5q-4 -179 -111.5 -328t-269.5 -158q-97 3 -150.5 71t-54.5 172q4 180 111 327t262 156z" />
    <glyph glyph-name="OE" unicode="&#x152;" 
d="M74 155h155v-155h-155v155z" />
    <glyph glyph-name="oe" unicode="&#x153;" 
d="M74 155h155v-155h-155v155z" />
    <glyph glyph-name="emdash" unicode="&#x2014;" horiz-adv-x="2048" 
d="M106 527h1580q68 0 128.5 8t102.5 17l-78 -115h-1565q-46 0 -111.5 -4.5t-131.5 -19.5z" />
    <glyph glyph-name="endash" unicode="&#x2013;" horiz-adv-x="1100" 
d="M1057 552l-78 -115h-707q-47 0 -114 -6t-117 -18l76 114h717q58 0 118.5 8t104.5 17z" />
    <glyph glyph-name="ellipsis" unicode="&#x2026;" horiz-adv-x="2048" 
d="M432 58q-1 -35 -26 -60t-64 -27q-43 3 -67.5 29t-24.5 60q1 40 27.5 65t64.5 26q40 -2 64.5 -30t25.5 -63zM1114 58q-1 -35 -26 -60t-64 -27q-43 3 -67.5 29t-24.5 60q1 40 27.5 65t64.5 26q40 -2 64.5 -30t25.5 -63zM1796 58q-1 -35 -26 -60t-64 -27q-43 3 -67.5 29
t-24.5 60q1 40 27.5 65t64.5 26q40 -2 64.5 -30t25.5 -63z" />
    <glyph glyph-name="daggerdbl" unicode="&#x2021;" horiz-adv-x="1100" 
d="M823 1308q-22 -43 -37.5 -82t-32 -85t-35 -110.5t-44.5 -161.5q143 0 206.5 3.5t82.5 5.5l-25 -74q-36 3 -92.5 4.5t-190.5 1.5l-168 -555q151 0 203 3t80 5l-25 -74q-18 2 -69.5 4.5t-206.5 2.5q-24 -84 -51.5 -184.5t-52.5 -210.5l-134 -41l140 436q-100 0 -178 -3.5
t-101 -3.5l25 74q28 -2 83 -5t189 -3l178 555q-109 0 -161 -2t-121 -4l24 74q59 -2 104 -5.5t175 -3.5q23 81 59 194.5t60 203.5z" />
    <glyph glyph-name="quotedblbase" unicode="&#x201e;" horiz-adv-x="872" 
d="M418 77q1 35 25.5 60t66.5 26q44 -2 65 -30.5t21 -65.5q-7 -119 -102.5 -203t-192.5 -106l-6 29q86 25 133.5 75t48.5 97q-4 30 -29.5 53.5t-29.5 64.5zM125 77q1 35 25.5 60t66.5 26q44 -2 65 -30.5t21 -65.5q-7 -119 -102.5 -203t-192.5 -106l-6 29q86 25 133.5 75
t48.5 97q-4 30 -29.5 53.5t-29.5 64.5z" />
    <glyph glyph-name="quotedblleft" unicode="&#x201c;" horiz-adv-x="872" 
d="M492 986q-1 -36 -26.5 -60.5t-66.5 -25.5q-43 1 -64.5 29.5t-21.5 68.5q11 135 117.5 217.5t177.5 92.5l6 -29q-86 -26 -133.5 -75.5t-48.5 -94.5q4 -36 30 -56.5t30 -66.5zM692 900q-43 1 -64.5 29.5t-21.5 68.5q11 135 117.5 217.5t177.5 92.5l6 -29
q-86 -26 -133.5 -75.5t-48.5 -94.5q4 -36 29.5 -56.5t29.5 -66.5q-1 -36 -26 -60.5t-66 -25.5z" />
    <glyph glyph-name="quotedblright" unicode="&#x201d;" horiz-adv-x="872" 
d="M680 1222q1 35 25.5 60t66.5 26q44 -2 65 -30.5t21 -66.5q-7 -121 -102.5 -205.5t-192.5 -105.5l-6 29q86 23 133.5 73t48.5 99q-4 32 -29.5 56t-29.5 65zM387 1222q1 35 25.5 60t66.5 26q45 -2 65.5 -30.5t20.5 -66.5q-7 -121 -102.5 -205.5t-192.5 -105.5l-6 29
q86 23 133.5 73t48.5 99q-4 32 -29.5 56t-29.5 65z" />
    <glyph glyph-name="Agrave" unicode="&#xc0;" 
d="M74 155h155v-155h-155v155z" />
    <glyph glyph-name="Acircumflex" unicode="&#xc2;" 
d="M74 155h155v-155h-155v155z" />
    <glyph glyph-name="Egrave" unicode="&#xc8;" 
d="M74 155h155v-155h-155v155z" />
    <glyph glyph-name="Ecircumflex" unicode="&#xca;" 
d="M74 155h155v-155h-155v155z" />
    <glyph glyph-name="Edieresis" unicode="&#xcb;" 
d="M74 155h155v-155h-155v155z" />
    <glyph glyph-name="Icircumflex" unicode="&#xce;" 
d="M74 155h155v-155h-155v155z" />
    <glyph glyph-name="Idieresis" unicode="&#xcf;" 
d="M74 155h155v-155h-155v155z" />
    <glyph glyph-name="acute" unicode="&#xb4;" horiz-adv-x="1020" 
d="M799 1283l-316 -213h-73l303 320q3 7 22.5 19t50.5 13q34 -1 52 -22.5t18 -46.5q-1 -21 -18 -38t-39 -32z" />
    <glyph glyph-name="grave" unicode="`" horiz-adv-x="1020" 
d="M651 1070q-62 53 -124.5 105.5t-120.5 99.5q-17 13 -33 34.5t-17 43.5q0 25 16 46.5t50 22.5q19 0 41.5 -11t36.5 -30l217 -311h-66z" />
    <glyph glyph-name="circumflex" unicode="&#x2c6;" horiz-adv-x="1020" 
d="M602 1267l-274 -205h-66l307 344h103l159 -344h-53z" />
    <glyph glyph-name="dieresis" unicode="&#xa8;" horiz-adv-x="1020" 
d="M762 1312q51 -2 74.5 -33t23.5 -61q1 -30 -18 -63t-76 -36q-57 3 -78 36t-20 63q-1 30 20.5 61t73.5 33zM319 1218q0 38 26 65.5t73 28.5q46 -2 70 -31.5t24 -62.5q1 -33 -18.5 -65t-71.5 -34q-52 2 -77.5 31t-25.5 68z" />
    <glyph glyph-name="tilde" unicode="&#x2dc;" horiz-adv-x="1020" 
d="M881 1336q-10 -79 -54.5 -136t-121.5 -60q-59 4 -132.5 30.5t-126.5 30.5q-44 0 -62.5 -18.5t-35.5 -55.5h-45q13 92 56.5 136.5t111.5 44.5q67 -3 133 -27t133 -27q51 2 71 27.5t28 54.5h45z" />
    <glyph glyph-name="Ugrave" unicode="&#xd9;" 
d="M74 155h155v-155h-155v155z" />
    <glyph glyph-name="Ucircumflex" unicode="&#xdb;" 
d="M74 155h155v-155h-155v155z" />
    <glyph glyph-name="overscore" unicode="&#xaf;" horiz-adv-x="1020" 
d="M0 1410v139h1016v-139h-1016z" />
    <glyph glyph-name="Yacute" unicode="&#xdd;" 
d="M74 155h155v-155h-155v155z" />
    <glyph glyph-name="yacute" unicode="&#xfd;" 
d="M74 155h155v-155h-155v155z" />
    <glyph glyph-name="degree" unicode="&#xb0;" horiz-adv-x="672" 
d="M139 1160q1 -71 52 -131.5t141 -64.5q93 4 142.5 62.5t49.5 129.5q-1 71 -49.5 132t-138.5 65q-93 -4 -144.5 -63t-52.5 -130zM332 873q-147 6 -215.5 97t-67.5 190q0 98 71 187.5t216 95.5q146 -8 214.5 -103.5t67.5 -183.5q1 -87 -69 -181t-217 -102z" />
    <glyph glyph-name="Ccedilla" unicode="&#xc7;" 
d="M74 155h155v-155h-155v155z" />
    <glyph glyph-name="ccedilla" unicode="&#xe7;" 
d="M74 155h155v-155h-155v155z" />
    <glyph glyph-name="Ntilde" unicode="&#xd1;" 
d="M74 155h155v-155h-155v155z" />
    <glyph glyph-name="ntilde" unicode="&#xf1;" 
d="M74 155h155v-155h-155v155z" />
    <glyph glyph-name="exclamdown" unicode="&#xa1;" 
d="M74 155h155v-155h-155v155z" />
    <glyph glyph-name="questiondown" unicode="&#xbf;" 
d="M74 155h155v-155h-155v155z" />
    <glyph glyph-name="currency" unicode="&#xa4;" horiz-adv-x="1237" 
d="M1036 873q0 -66 -22.5 -130.5t-63.5 -114.5l205 -205l-82 -82l-205 205q-51 -40 -114 -63t-140 -23q-85 1 -146 26t-103 60l-205 -205l-82 82l205 205q-38 51 -60 112t-22 138q1 79 24 140t58 109l-205 205l82 78l205 -205q39 32 99 58t154 28q88 -1 148 -25.5t102 -56.5
l205 201l82 -78l-205 -205q41 -47 63.5 -115.5t22.5 -138.5zM618 1181q-145 -6 -221.5 -101.5t-77.5 -206.5q2 -110 81.5 -201.5t213.5 -97.5q143 6 224.5 100t83.5 199q0 106 -76.5 203.5t-227.5 104.5z" />
    <glyph glyph-name="sterling" unicode="&#xa3;" 
d="M74 155h155v-155h-155v155z" />
    <glyph glyph-name="yen" unicode="&#xa5;" 
d="M74 155h155v-155h-155v155z" />
    <glyph glyph-name="section" unicode="&#xa7;" 
d="M74 155h155v-155h-155v155z" />
    <glyph glyph-name="florin" unicode="&#x192;" 
d="M74 155h155v-155h-155v155z" />
    <glyph glyph-name="cent" unicode="&#xa2;" 
d="M74 155h155v-155h-155v155z" />
    <glyph glyph-name="acircumflex" unicode="&#xe2;" 
d="M74 155h155v-155h-155v155z" />
    <glyph glyph-name="ecircumflex" unicode="&#xea;" 
d="M74 155h155v-155h-155v155z" />
    <glyph glyph-name="ocircumflex" unicode="&#xf4;" 
d="M74 155h155v-155h-155v155z" />
    <glyph glyph-name="ucircumflex" unicode="&#xfb;" 
d="M74 155h155v-155h-155v155z" />
    <glyph glyph-name="aacute" unicode="&#xe1;" 
d="M74 155h155v-155h-155v155z" />
    <glyph glyph-name="eacute" unicode="&#xe9;" 
d="M74 155h155v-155h-155v155z" />
    <glyph glyph-name="oacute" unicode="&#xf3;" 
d="M74 155h155v-155h-155v155z" />
    <glyph glyph-name="uacute" unicode="&#xfa;" 
d="M74 155h155v-155h-155v155z" />
    <glyph glyph-name="agrave" unicode="&#xe0;" 
d="M74 155h155v-155h-155v155z" />
    <glyph glyph-name="egrave" unicode="&#xe8;" 
d="M74 155h155v-155h-155v155z" />
    <glyph glyph-name="ograve" unicode="&#xf2;" 
d="M74 155h155v-155h-155v155z" />
    <glyph glyph-name="ugrave" unicode="&#xf9;" 
d="M74 155h155v-155h-155v155z" />
    <glyph glyph-name="adieresis" unicode="&#xe4;" 
d="M74 155h155v-155h-155v155z" />
    <glyph glyph-name="edieresis" unicode="&#xeb;" 
d="M74 155h155v-155h-155v155z" />
    <glyph glyph-name="odieresis" unicode="&#xf6;" 
d="M74 155h155v-155h-155v155z" />
    <glyph glyph-name="udieresis" unicode="&#xfc;" 
d="M74 155h155v-155h-155v155z" />
    <glyph glyph-name="Aring" unicode="&#xc5;" 
d="M74 155h155v-155h-155v155z" />
    <glyph glyph-name="icircumflex" unicode="&#xee;" 
d="M74 155h155v-155h-155v155z" />
    <glyph glyph-name="Oslash" unicode="&#xd8;" 
d="M74 155h155v-155h-155v155z" />
    <glyph glyph-name="AE" unicode="&#xc6;" 
d="M74 155h155v-155h-155v155z" />
    <glyph glyph-name="aring" unicode="&#xe5;" 
d="M74 155h155v-155h-155v155z" />
    <glyph glyph-name="iacute" unicode="&#xed;" 
d="M74 155h155v-155h-155v155z" />
    <glyph glyph-name="oslash" unicode="&#xf8;" 
d="M74 155h155v-155h-155v155z" />
    <glyph glyph-name="ae" unicode="&#xe6;" 
d="M74 155h155v-155h-155v155z" />
    <glyph glyph-name="Adieresis" unicode="&#xc4;" 
d="M74 155h155v-155h-155v155z" />
    <glyph glyph-name="igrave" unicode="&#xec;" 
d="M74 155h155v-155h-155v155z" />
    <glyph glyph-name="Odieresis" unicode="&#xd6;" 
d="M74 155h155v-155h-155v155z" />
    <glyph glyph-name="Udieresis" unicode="&#xdc;" 
d="M74 155h155v-155h-155v155z" />
    <glyph glyph-name="Eacute" unicode="&#xc9;" 
d="M74 155h155v-155h-155v155z" />
    <glyph glyph-name="idieresis" unicode="&#xef;" 
d="M74 155h155v-155h-155v155z" />
    <glyph glyph-name="germandbls" unicode="&#xdf;" 
d="M74 155h155v-155h-155v155z" />
    <glyph glyph-name="Ocircumflex" unicode="&#xd4;" 
d="M74 155h155v-155h-155v155z" />
    <glyph glyph-name="Aacute" unicode="&#xc1;" 
d="M74 155h155v-155h-155v155z" />
    <glyph glyph-name="Atilde" unicode="&#xc3;" 
d="M74 155h155v-155h-155v155z" />
    <glyph glyph-name="atilde" unicode="&#xe3;" 
d="M74 155h155v-155h-155v155z" />
    <glyph glyph-name="Eth" unicode="&#xd0;" 
d="M74 155h155v-155h-155v155z" />
    <glyph glyph-name="eth" unicode="&#xf0;" 
d="M74 155h155v-155h-155v155z" />
    <glyph glyph-name="eth" unicode="&#x111;" 
d="M74 155h155v-155h-155v155z" />
    <glyph glyph-name="Iacute" unicode="&#xcd;" 
d="M74 155h155v-155h-155v155z" />
    <glyph glyph-name="Igrave" unicode="&#xcc;" 
d="M74 155h155v-155h-155v155z" />
    <glyph glyph-name="Oacute" unicode="&#xd3;" 
d="M74 155h155v-155h-155v155z" />
    <glyph glyph-name="Ograve" unicode="&#xd2;" 
d="M74 155h155v-155h-155v155z" />
    <glyph glyph-name="Otilde" unicode="&#xd5;" 
d="M74 155h155v-155h-155v155z" />
    <glyph glyph-name="otilde" unicode="&#xf5;" 
d="M74 155h155v-155h-155v155z" />
    <glyph glyph-name="Scaron" unicode="&#x160;" 
d="M74 155h155v-155h-155v155z" />
    <glyph glyph-name="scaron" unicode="&#x161;" 
d="M74 155h155v-155h-155v155z" />
    <glyph glyph-name="Uacute" unicode="&#xda;" 
d="M74 155h155v-155h-155v155z" />
    <glyph glyph-name="Ydieresis" unicode="&#x178;" 
d="M74 155h155v-155h-155v155z" />
    <glyph glyph-name="ydieresis" unicode="&#xff;" 
d="M74 155h155v-155h-155v155z" />
    <glyph glyph-name="Thorn" unicode="&#xde;" 
d="M74 155h155v-155h-155v155z" />
    <glyph glyph-name="thorn" unicode="&#xfe;" 
d="M74 155h155v-155h-155v155z" />
    <glyph glyph-name="mu" unicode="&#xb5;" horiz-adv-x="1163" 
d="M377 -20q-97 3 -155 58t-62 139q-33 -109 -51.5 -268t-38.5 -241q-10 -37 -34 -60.5t-53 -25.5q-66 2 -79.5 54.5t17.5 150.5q64 211 139 530t124 556h164l-115 -557q-16 -76 20.5 -132.5t139.5 -59.5q77 -1 141.5 43.5t88.5 144.5l118 561h168l-135 -638
q-6 -37 20 -74.5t87 -40.5q74 3 118 60t54 128q0 7 5.5 19.5t22.5 13.5q21 -1 25 -13.5t0 -19.5q-4 -109 -66.5 -214t-208.5 -114q-85 4 -123.5 64.5t-35.5 140.5q-39 -88 -108 -145t-187 -60z" />
    <glyph glyph-name="paragraph" unicode="&#xb6;" horiz-adv-x="1020" 
d="M66 1111q5 164 105.5 257t238.5 95h540v-82h-119v-1381h-106v1381h-180v-1381h-107v775q-179 5 -275 103.5t-97 232.5z" />
    <glyph glyph-name="threequarters" unicode="&#xbe;" 
d="M74 155h155v-155h-155v155z" />
    <glyph glyph-name="onequarter" unicode="&#xbc;" 
d="M74 155h155v-155h-155v155z" />
    <glyph glyph-name="onehalf" unicode="&#xbd;" 
d="M74 155h155v-155h-155v155z" />
    <glyph glyph-name="ordfeminine" unicode="&#xaa;" 
d="M74 155h155v-155h-155v155z" />
    <glyph glyph-name="ordmasculine" unicode="&#xba;" 
d="M74 155h155v-155h-155v155z" />
    <glyph glyph-name="guillemotleft" unicode="&#xab;" horiz-adv-x="840" 
d="M303 95q-23 5 -51 49.5t-47 73.5q-36 42 -86.5 110.5t-89.5 106.5q-18 16 -12.5 32.5t24.5 29.5q48 37 110.5 89.5t110.5 86.5q68 59 117 108t80 52q51 -13 -73 -147t-226 -230q38 -61 113 -202.5t30 -158.5zM639 95q-23 5 -51 49.5t-47 73.5q-36 42 -86.5 110.5
t-89.5 106.5q-18 16 -12.5 32.5t24.5 29.5q48 37 110.5 89.5t110.5 86.5q68 59 117 108t80 52q51 -13 -73 -147t-226 -230q37 -61 112.5 -202.5t30.5 -158.5z" />
    <glyph glyph-name="guilsinglleft" unicode="&#x2039;" horiz-adv-x="504" 
d="M303 95q-23 5 -51 49.5t-47 73.5q-36 42 -86.5 110.5t-89.5 106.5q-18 16 -12.5 32.5t24.5 29.5q48 37 110.5 89.5t110.5 86.5q68 59 117 108t80 52q51 -13 -73 -147t-226 -230q38 -61 113 -202.5t30 -158.5z" />
    <glyph glyph-name="guillemotright" unicode="&#xbb;" horiz-adv-x="840" 
d="M553 472q-38 60 -113 204t-30 161q22 -5 50 -51.5t48 -75.5q36 -41 86.5 -109.5t89.5 -107.5q18 -16 12.5 -32.5t-24.5 -29.5q-49 -37 -111 -89.5t-110 -86.5q-68 -59 -117 -108t-80 -52q-54 13 71 147t228 230zM172 710q36 -41 86.5 -109.5t89.5 -107.5
q18 -16 12.5 -32.5t-24.5 -29.5q-49 -37 -111 -89.5t-110 -86.5q-67 -59 -114.5 -108t-79.5 -52q-53 13 70 147t226 230q-38 60 -112 204t-31 161q22 -5 50 -51.5t48 -75.5z" />
    <glyph glyph-name="plusminus" unicode="&#xb1;" horiz-adv-x="1700" 
d="M918 366h-136v340h-528v135h528v340h136v-340h528v-135h-528v-340zM254 26v135h1192v-135h-1192z" />
    <glyph glyph-name="guilsinglright" unicode="&#x203a;" horiz-adv-x="504" 
d="M172 710q36 -41 86.5 -109.5t89.5 -107.5q18 -16 12.5 -32.5t-24.5 -29.5q-49 -37 -111 -89.5t-110 -86.5q-67 -59 -114.5 -108t-79.5 -52q-53 13 70 147t226 230q-38 60 -112 204t-31 161q22 -5 50 -51.5t48 -75.5z" />
    <glyph glyph-name="periodcentered" unicode="&#xb7;" horiz-adv-x="1028" 
d="M512 550q-51 2 -88 39t-39 88q2 51 39 88t88 39q51 -2 88 -39t39 -88q-2 -51 -39 -88t-88 -39z" />
    <glyph glyph-name="bullet" unicode="&#x2022;" horiz-adv-x="1204" 
d="M598 1046q134 -5 213.5 -92.5t81.5 -202.5q-2 -115 -81.5 -201t-213.5 -90q-131 4 -210 90t-81 201q2 115 81 202.5t210 92.5z" />
    <glyph glyph-name="quotesinglbase" unicode="&#x201a;" horiz-adv-x="508" 
d="M119 95q0 45 29.5 77.5t93.5 33.5q60 1 108 -42t51 -138q1 -102 -65 -191.5t-209 -170.5l-25 29q89 59 154 126.5t68 143.5q0 25 -10 32t-31 6q-13 0 -27.5 -0.5t-30.5 -0.5q-47 0 -76 22t-30 73z" />
  </font>
</defs>
</svg>
